# xmcd
# 
# Track frame offsets:
#     150
#     9787
#     22020
#     30950
#     44975
#     55497
#     66902
#     78740
#     88270
#     112437
#     154722
#     187980
#     237952
# 
# Disc length: 3526
# 
# Revision: 3
# Processed by: cddbd v1.5.2PL0 Copyright (c) Steve Scherf et al.
# Submitted via: fre:ac v1.0.17
# 
DISCID=b00dc40d
DTITLE=Canned Heat - The Masters
DYEAR=1998
DGENRE=Blues
TTITLE0=Big Road Blues
TTITLE1=Got My Mojo Working
TTITLE2=Pretty Thing
TTITLE3=Louise
TTITLE4=Dimples
TTITLE5=Talk To Me Baby
TTITLE6=Straight Ahead
TTITLE7=Rollin' and Tumblin'
TTITLE8=I'd Rather Be A Devil
TTITLE9=It Hurts Me Too
TTITLE10=Bull Frog Blues
TTITLE11=Sweet Sixteen
TTITLE12=Dust My Broom
EXTD=
EXTT0=
EXTT1=
EXTT2=
EXTT3=
EXTT4=
EXTT5=
EXTT6=
EXTT7=
EXTT8=
EXTT9=
EXTT10=
EXTT11=
EXTT12=
PLAYORDER=
